<svg height="512" viewBox="0 0 128 128" width="512" xmlns="http://www.w3.org/2000/svg"><path d="m120.343 63.193c-.772-15.894-3.735-23.938-9.512-25.7a11.16 11.16 0 0 0 -4.917-5.83c-.019-.011-.039-.018-.058-.028l-.064-.031c-3.418-1.888-7.417-1.827-10.073-1.781-.365.006-.706.012-1.019.012-2.422 0-5.316.293-8.668.632a145.121 145.121 0 0 1 -14.992.958c-1.066 0-2.3-.02-3.672-.043l-1.736-.026c-5.818-.109-15.322-.284-23.206.874-.067-.167-.126-.341-.2-.5a19.615 19.615 0 0 0 4.434-14.358 1.75 1.75 0 0 0 -3.193-.788 39.286 39.286 0 0 1 -9.16 8.883 24.219 24.219 0 0 0 -5.4-.437h-.327a24.18 24.18 0 0 0 -5.4.437 39.286 39.286 0 0 1 -9.16-8.883 1.75 1.75 0 0 0 -3.193.788 19.612 19.612 0 0 0 4.433 14.352c-.091.2-.167.421-.249.633-3.243-.413-7.394.37-9.538 1.941a1.751 1.751 0 0 0 -.382 2.441 12.233 12.233 0 0 0 8.908 5.425c.035.412.057.81.107 1.236 1.649 14.016 5.835 17.764 10.787 18.709 1.846 1.777 3.478 3.443 4.846 4.955a58.6 58.6 0 0 1 3.843 5.153c1.075 7.379 2.3 22.052 1.148 31.378a1.751 1.751 0 0 0 1.737 1.965h5.72a1.751 1.751 0 0 0 1.716-1.4c.106-.526 1.991-9.86 3.238-16.179.477 9.334.417 15.734.416 15.814a1.75 1.75 0 0 0 1.75 1.769h7.08a1.75 1.75 0 0 0 1.725-1.456c.027-.16 2.732-16.081 3.46-25.672a1.753 1.753 0 0 0 -.546-1.408 9.821 9.821 0 0 1 -1.208-1.411c.811.018 1.655.034 2.523.047q1.957.029 3.816.028h.2c.975 0 1.924-.007 2.857-.018.216 0 .426-.007.64-.01q1.222-.018 2.393-.049c.244-.006.488-.012.729-.02.949-.029 1.88-.062 2.772-.1 1.156-.053 2.237-.121 3.283-.2 1.634 2.276 4.231 5.437 7.02 7.039l-1.979 21.317a1.751 1.751 0 0 0 1.743 1.912h7.085a1.75 1.75 0 0 0 1.725-1.456c.025-.143 2.2-12.949 3.174-22.509.447.278.9.546 1.392.786l-1.973 21.267a1.75 1.75 0 0 0 1.742 1.912h7.09a1.75 1.75 0 0 0 1.725-1.456c.166-.98 4.079-24.088 3.591-31.191-.124-1.846-.311-3.509-.492-5.117-.5-4.442-.933-8.278.3-13.8a40.231 40.231 0 0 0 .782-11.663c2.708 3.009 4.345 10.027 4.884 20.964-1.336.712-2.719 2.482-2.719 6.79a14.053 14.053 0 0 0 3.245 8.339 1.748 1.748 0 0 0 2.635 0 14.053 14.053 0 0 0 3.245-8.339c.004-4.517-1.512-6.254-2.903-6.897zm-33.958-29.249c3.257-.329 6.07-.614 8.315-.614.331 0 .693-.006 1.079-.013a25.646 25.646 0 0 1 5.4.321c-4.965 3.661-9.541 8.924-12.748 12.617-1.162 1.339-2.165 2.494-2.753 3.052-1.513 1.428-6.006 2.548-9.892 1.124-3.246-1.189-5.113-3.755-5.548-7.628a31.017 31.017 0 0 0 -1.638-7.903c.884.013 1.7.023 2.441.023a148.108 148.108 0 0 0 15.344-.979zm-42.765 4.681a22.467 22.467 0 0 0 -.258-2.847 13.716 13.716 0 0 1 4.805.522 8.137 8.137 0 0 1 -4.547 2.325zm-.744-15.895a17.007 17.007 0 0 1 -2.7 5.891 10.2 10.2 0 0 0 -2.006-1.631 45.7 45.7 0 0 0 4.706-4.26zm-23.566 4.261a10.183 10.183 0 0 0 -2 1.631 17.013 17.013 0 0 1 -2.7-5.892 45.714 45.714 0 0 0 4.7 4.261zm-5.191 8.788a22.45 22.45 0 0 0 -.258 2.847 8.136 8.136 0 0 1 -4.548-2.326 13.7 13.7 0 0 1 4.806-.521zm3.456 7.212c-.651-5.535.057-9.505 2.105-11.8 2.243-2.511 5.779-2.666 8.338-2.666h.9a19.668 19.668 0 0 1 5.08.453 1.691 1.691 0 0 0 .269.079 7.4 7.4 0 0 1 3.533 2.137c2.048 2.292 2.756 6.261 2.1 11.8-1.871 15.911-6.6 15.916-11.163 15.921a20.366 20.366 0 0 1 -2.639-.118 1.632 1.632 0 0 0 -.184-.027c-3.57-.545-6.854-3.152-8.339-15.779zm27.707 38.316a1.747 1.747 0 0 0 -.623 1.047c-.573 3.116-3.064 15.5-3.911 19.706h-2.348c.68-7.934.015-18.573-.815-26.036a44.585 44.585 0 0 0 8.106 4.88c-.245.262-.409.403-.409.403zm27.466-9.207c-.276.008-.565.013-.846.021q-.954.024-1.944.04-.615.009-1.244.015c-.63.007-1.273.01-1.924.011-.366 0-.725 0-1.1 0-.919 0-1.86-.011-2.814-.024l-1.118-.715c-4.917-3.139-8.165-5.214-9.107-7.942a2.164 2.164 0 0 1 .534-2.2c1.581-2.038 5.4-3.558 8.338-3.312 3.95.327 5.752.476 9.775 10.349.54 1.322 1.084 2.575 1.624 3.749zm18.67 29.961h-3.689l1.914-20.608a1.75 1.75 0 0 0 -1.109-1.793c-1.5-.583-3.43-2.3-5.4-4.746a34.077 34.077 0 0 0 7.771-1.64 16.684 16.684 0 0 0 3.627 5.657c-.648 7.746-2.457 19.124-3.114 23.129zm15.982-33.873c.176 1.569.359 3.192.478 4.962.393 5.718-2.447 23.659-3.308 28.91h-3.69l1.912-20.608a1.749 1.749 0 0 0 -1.1-1.791c-5.557-2.177-7.853-7.592-7.81-8.676a1.751 1.751 0 0 0 -2.807-1.706c-.961.765-4.123 2.1-14.349 2.652-.726-1.487-1.455-3.131-2.185-4.911-4.134-10.147-6.803-12.02-12.727-12.514-4.1-.335-9.1 1.706-11.391 4.655a5.716 5.716 0 0 0 -1.077 5.49c1.017 2.947 3.49 5.076 6.959 7.424a1.729 1.729 0 0 0 -1.127.775 1.75 1.75 0 0 0 -.071 1.737 20.9 20.9 0 0 0 2.905 4.366c-.65 7.746-2.458 19.109-3.115 23.107h-3.847c-.017-3.487-.145-11.8-.9-22 0-.025-.012-.047-.015-.071a1.734 1.734 0 0 0 -.074-.339c-.01-.031-.017-.063-.029-.093a1.685 1.685 0 0 0 -.2-.368c-.021-.03-.047-.056-.07-.084a1.744 1.744 0 0 0 -.214-.224c-.039-.034-.076-.066-.118-.1a1.726 1.726 0 0 0 -.306-.179c-.02-.009-.036-.025-.056-.033a39.076 39.076 0 0 1 -12.32-7.909c-.016-.026-.036-.048-.053-.072a62.155 62.155 0 0 0 -4.376-5.885c-.669-.739-1.406-1.519-2.19-2.324 5.99-.268 11.337-2.684 13.254-18.982.05-.426.072-.825.107-1.236a12.233 12.233 0 0 0 8.91-5.422 1.746 1.746 0 0 0 .119-1.857c4.471-.167 8.812-.109 12.15-.049.822 1.319 1.515 3.233 2.1 8.362.579 5.149 3.357 8.886 7.822 10.523a14.831 14.831 0 0 0 5.09.876c3.5 0 6.721-1.149 8.412-2.745.714-.678 1.718-1.834 2.989-3.3 3.279-3.776 8.647-9.953 13.935-13.3 3.6 2.745 4.523 8.812 2.743 18.027-1.36 6.05-.877 10.355-.36 14.912zm11.291 5.89a8.977 8.977 0 0 1 -1.062-4c0-2.731.651-3.75 1.062-3.75s1.063 1.019 1.063 3.75a8.96 8.96 0 0 1 -1.067 4z"/></svg>