{
  "asset": {
    "version": "2.0",
    "generator": "GLTFExporter"
  },
  "scenes": [
    {
      "name": "Scene",
      "nodes": [
        16,
        17
      ]
    }
  ],
  "scene": 0,
  "nodes": [
    {
      "matrix": [
        0.8158425443552692,
        0,
        0,
        0,
        0,
        0.6927700569193657,
        0,
        0,
        0,
        0,
        1,
        0,
        4.067158829738591,
        0.4866183207206336,
        -5.691653106275789,
        1
      ],
      "name": "pCylinder1_lambert1_0",
      "extras": {
        "name": "pCylinder1_lambert1_0"
      },
      "mesh": 0
    },
    {
      "matrix": [
        3.75950288772583,
        0,
        0,
        0,
        0,
        5.566406726837158,
        0,
        0,
        0,
        0,
        3.7271323204040527,
        0,
        -1.7517287731170654,
        -2.9742977619171143,
        0.3242284655570984,
        1
      ],
      "name": "pCylinder1",
      "extras": {
        "name": "pCylinder1"
      },
      "children": [
        0
      ]
    },
    {
      "name": "RootNode",
      "extras": {
        "name": "RootNode"
      },
      "children": [
        1
      ]
    },
    {
      "matrix": [
        1,
        0,
        0,
        0,
        0,
        2.220446049250313e-16,
        1,
        0,
        0,
        -1,
        2.220446049250313e-16,
        0,
        0,
        0,
        0,
        1
      ],
      "name": "0127177f381542eb82f5932b95f34bf2fbx",
      "extras": {
        "name": "0127177f381542eb82f5932b95f34bf2.fbx"
      },
      "children": [
        2
      ]
    },
    {
      "matrix": [
        2.727348149131341,
        0,
        -0.3034707456936614,
        0,
        0,
        2.0726325655944082,
        0,
        0,
        0.25401533604191795,
        0,
        2.2828831656288733,
        0,
        15.66280191530231,
        -1.5703996074352666,
        12.86546224080066,
        1
      ],
      "name": "mesh_0",
      "mesh": 1
    },
    {
      "matrix": [
        1,
        0,
        0,
        0,
        0,
        1,
        0,
        0,
        0,
        0,
        1,
        0,
        0,
        0,
        3.030219793319702,
        1
      ],
      "name": "Cube002_2",
      "extras": {
        "name": "Cube.002_2"
      },
      "children": [
        4
      ]
    },
    {
      "matrix": [
        2.9290727472993927,
        -0.0016666001323494613,
        -0.013829594595264063,
        0,
        0.0015543446946540813,
        2.1696435209622265,
        0.0677431648035941,
        0,
        0.013195812640203574,
        -0.08760284154836796,
        2.8053963420948014,
        0,
        47.98953093554589,
        -93.0985389830763,
        45.41507529006614,
        1
      ],
      "name": "mesh_1",
      "mesh": 2
    },
    {
      "matrix": [
        0.20433168039440744,
        0.2043317070531036,
        0,
        0,
        -0.05744375589726183,
        0.05744374840270479,
        0,
        0,
        0,
        0,
        0.28896859288215637,
        0,
        -0.575308620929718,
        5.509005546569824,
        2.999666213989258,
        1
      ],
      "name": "Cylinder_3",
      "extras": {
        "name": "Cylinder_3"
      },
      "children": [
        6
      ]
    },
    {
      "matrix": [
        1,
        0,
        0,
        0,
        0,
        2.220446049250313e-16,
        1,
        0,
        0,
        -1,
        2.220446049250313e-16,
        0,
        0,
        0,
        0,
        1
      ],
      "name": "GLTF_SceneRootNode",
      "extras": {
        "name": "GLTF_SceneRootNode"
      },
      "children": [
        5,
        7
      ]
    },
    {
      "name": "root",
      "extras": {
        "name": "root"
      },
      "children": [
        8
      ]
    },
    {
      "matrix": [
        3.8741241487181592,
        0,
        0,
        0,
        0,
        3.912940502649611,
        0,
        0,
        0,
        0,
        6.767313587816617,
        0,
        -14.72387350455658,
        -2.2097592802387296,
        1.9391820294685964,
        1
      ],
      "name": "Cube001_0",
      "extras": {
        "name": "Cube.001_0"
      },
      "mesh": 3
    },
    {
      "matrix": [
        3.5773137618116544,
        0,
        0,
        0,
        0,
        3.7682524928590415,
        0,
        0,
        0,
        0,
        5.4116453006511245,
        0,
        -14.767812473223561,
        -2.207491318160442,
        2.344266754092278,
        1
      ],
      "name": "Cube001_1",
      "extras": {
        "name": "Cube.001_1"
      },
      "mesh": 4
    },
    {
      "matrix": [
        1.25131,
        0,
        0,
        0,
        0,
        -1.2197199999999997,
        0,
        0,
        0,
        0,
        1.83728,
        0,
        0.6310100000000001,
        0,
        3.1032100000000002,
        1
      ],
      "name": "Cube001",
      "extras": {
        "name": "Cube.001"
      },
      "children": [
        10,
        11
      ]
    },
    {
      "name": "Root",
      "extras": {
        "name": "Root"
      },
      "children": [
        12
      ]
    },
    {
      "name": "RootNode_(model_correction_matrix)",
      "extras": {
        "name": "RootNode (model correction matrix)"
      },
      "children": [
        3,
        9,
        13
      ]
    },
    {
      "matrix": [
        1,
        0,
        0,
        0,
        0,
        2.220446049250313e-16,
        -1,
        0,
        0,
        1,
        2.220446049250313e-16,
        0,
        0,
        0,
        0,
        1
      ],
      "name": "RootNode_(gltf_orientation_matrix)",
      "extras": {
        "name": "RootNode (gltf orientation matrix)"
      },
      "children": [
        14
      ]
    },
    {
      "matrix": [
        1,
        0,
        0,
        0,
        0,
        1,
        0,
        0,
        0,
        0,
        1,
        0,
        0,
        0,
        2.6577807750431504,
        1
      ],
      "name": "OSG_Scene",
      "children": [
        15
      ]
    },
    {
      "matrix": [
        1,
        0,
        0,
        0,
        0,
        1,
        0,
        0,
        0,
        0,
        1,
        0,
        5,
        10,
        7.5,
        1
      ],
      "name": "DirectionalLight",
      "extensions": {
        "KHR_lights_punctual": {
          "light": 0
        }
      }
    }
  ],
  "bufferViews": [
    {
      "buffer": 0,
      "byteOffset": 0,
      "byteLength": 8316,
      "target": 34962,
      "byteStride": 12
    },
    {
      "buffer": 0,
      "byteOffset": 8316,
      "byteLength": 8316,
      "target": 34962,
      "byteStride": 12
    },
    {
      "buffer": 0,
      "byteOffset": 16632,
      "byteLength": 5544,
      "target": 34962,
      "byteStride": 8
    },
    {
      "buffer": 0,
      "byteOffset": 22176,
      "byteLength": 12960,
      "target": 34963
    },
    {
      "buffer": 0,
      "byteOffset": 35136,
      "byteLength": 349080,
      "target": 34962,
      "byteStride": 12
    },
    {
      "buffer": 0,
      "byteOffset": 384216,
      "byteLength": 349080,
      "target": 34962,
      "byteStride": 12
    },
    {
      "buffer": 0,
      "byteOffset": 733296,
      "byteLength": 232720,
      "target": 34962,
      "byteStride": 8
    },
    {
      "buffer": 0,
      "byteOffset": 966016,
      "byteLength": 528384,
      "target": 34963
    },
    {
      "buffer": 0,
      "byteOffset": 1494400,
      "byteLength": 42528,
      "target": 34962,
      "byteStride": 12
    },
    {
      "buffer": 0,
      "byteOffset": 1536928,
      "byteLength": 42528,
      "target": 34962,
      "byteStride": 12
    },
    {
      "buffer": 0,
      "byteOffset": 1579456,
      "byteLength": 28352,
      "target": 34962,
      "byteStride": 8
    },
    {
      "buffer": 0,
      "byteOffset": 1607808,
      "byteLength": 67584,
      "target": 34963
    },
    {
      "buffer": 0,
      "byteOffset": 1675392,
      "byteLength": 1836,
      "target": 34962,
      "byteStride": 12
    },
    {
      "buffer": 0,
      "byteOffset": 1677228,
      "byteLength": 1836,
      "target": 34962,
      "byteStride": 12
    },
    {
      "buffer": 0,
      "byteOffset": 1679064,
      "byteLength": 3456,
      "target": 34963
    },
    {
      "buffer": 0,
      "byteOffset": 1682520,
      "byteLength": 12852,
      "target": 34962,
      "byteStride": 12
    },
    {
      "buffer": 0,
      "byteOffset": 1695372,
      "byteLength": 12852,
      "target": 34962,
      "byteStride": 12
    },
    {
      "buffer": 0,
      "byteOffset": 1708224,
      "byteLength": 25536,
      "target": 34963
    }
  ],
  "buffers": [
    {
      "byteLength": 1733760,
      "uri": "data:application/octet-stream;base64,"
    }
  ],
  "accessors": [
    {
      "bufferView": 0,
      "componentType": 5126,
      "count": 693,
      "max": [
        0.9999752640724182,
        1,
        0.9999752044677734
      ],
      "min": [
        -0.9999752044677734,
        -1,
        -0.9999752044677734
      ],
      "type": "VEC3"
    },
    {
      "bufferView": 1,
      "componentType": 5126,
      "count": 693,
      "max": [
        1.0731606483459473,
        2.3274519443511963,
        1.0731607675552368
      ],
      "min": [
        -1.073161005973816,
        -1.0395503044128418,
        -1.0731611251831055
      ],
      "type": "VEC3"
    },
    {
      "bufferView": 2,
      "componentType": 5126,
      "count": 693,
      "max": [
        0.6562500596046448,
        1
      ],
      "min": [
        0.3437499403953552,
        -7.450580596923828e-8
      ],
      "type": "VEC2"
    },
    {
      "bufferView": 3,
      "componentType": 5125,
      "count": 3240,
      "max": [
        692
      ],
      "min": [
        0
      ],
      "type": "SCALAR"
    },
    {
      "bufferView": 4,
      "componentType": 5126,
      "count": 29090,
      "max": [
        1,
        1,
        1
      ],
      "min": [
        -1,
        -1,
        -1
      ],
      "type": "VEC3"
    },
    {
      "bufferView": 5,
      "componentType": 5126,
      "count": 29090,
      "max": [
        1.223310112953186,
        6.500000953674316,
        1.1772243976593018
      ],
      "min": [
        -1.2396962642669678,
        -1.010532021522522,
        -1.1877293586730957
      ],
      "type": "VEC3"
    },
    {
      "bufferView": 6,
      "componentType": 5126,
      "count": 29090,
      "max": [
        1.0000001192092896,
        1.000000238418579
      ],
      "min": [
        0,
        0
      ],
      "type": "VEC2"
    },
    {
      "bufferView": 7,
      "componentType": 5125,
      "count": 132096,
      "max": [
        29089
      ],
      "min": [
        0
      ],
      "type": "SCALAR"
    },
    {
      "bufferView": 8,
      "componentType": 5126,
      "count": 3544,
      "max": [
        0.9998687505722046,
        1,
        0.9998687505722046
      ],
      "min": [
        -0.9998687505722046,
        -1,
        -0.9998687505722046
      ],
      "type": "VEC3"
    },
    {
      "bufferView": 9,
      "componentType": 5126,
      "count": 3544,
      "max": [
        0.9814621806144714,
        0.9348846673965454,
        0.9814621806144714
      ],
      "min": [
        -0.9814621210098267,
        -1.0000003576278687,
        -0.9814621806144714
      ],
      "type": "VEC3"
    },
    {
      "bufferView": 10,
      "componentType": 5126,
      "count": 3544,
      "max": [
        1.0000001192092896,
        1.0000001192092896
      ],
      "min": [
        0,
        0.010000006295740604
      ],
      "type": "VEC2"
    },
    {
      "bufferView": 11,
      "componentType": 5125,
      "count": 16896,
      "max": [
        3543
      ],
      "min": [
        0
      ],
      "type": "SCALAR"
    },
    {
      "bufferView": 12,
      "componentType": 5126,
      "count": 153,
      "max": [
        1,
        1,
        1
      ],
      "min": [
        -1,
        -1,
        0
      ],
      "type": "VEC3"
    },
    {
      "bufferView": 13,
      "componentType": 5126,
      "count": 153,
      "max": [
        0.2809300124645233,
        0.2811200022697449,
        0.3842099905014038
      ],
      "min": [
        -0.2809300124645233,
        -0.28073999285697937,
        0.2930600047111511
      ],
      "type": "VEC3"
    },
    {
      "bufferView": 14,
      "componentType": 5125,
      "count": 864,
      "max": [
        152
      ],
      "min": [
        0
      ],
      "type": "SCALAR"
    },
    {
      "bufferView": 15,
      "componentType": 5126,
      "count": 1071,
      "max": [
        0.9999875426292419,
        0.9999470114707947,
        0.9999435544013977
      ],
      "min": [
        -0.9999971985816956,
        -0.9999603629112244,
        -1
      ],
      "type": "VEC3"
    },
    {
      "bufferView": 16,
      "componentType": 5126,
      "count": 1071,
      "max": [
        0.90625,
        0.9062399864196777,
        0.2930600047111511
      ],
      "min": [
        -0.9093000292778015,
        -0.9060999751091003,
        -1.3596999645233154
      ],
      "type": "VEC3"
    },
    {
      "bufferView": 17,
      "componentType": 5125,
      "count": 6384,
      "max": [
        1070
      ],
      "min": [
        0
      ],
      "type": "SCALAR"
    }
  ],
  "materials": [
    {
      "pbrMetallicRoughness": {
        "baseColorFactor": [
          0.9294117647058824,
          0.5882352941176471,
          0.19607843137254902,
          1
        ],
        "metallicFactor": 0,
        "roughnessFactor": 1
      },
      "emissiveFactor": [
        0.9294117647058824,
        0.42745098039215684,
        0.2
      ]
    },
    {
      "pbrMetallicRoughness": {
        "baseColorFactor": [
          0.38823529411764707,
          0.8392156862745098,
          0.8745098039215686,
          1
        ],
        "metallicFactor": 1,
        "roughnessFactor": 1
      },
      "emissiveFactor": [
        0.09803921568627451,
        0.26666666666666666,
        0.5803921568627451
      ]
    },
    {
      "pbrMetallicRoughness": {
        "metallicFactor": 0,
        "roughnessFactor": 0.6
      },
      "doubleSided": true,
      "name": "material_0"
    },
    {
      "pbrMetallicRoughness": {
        "baseColorFactor": [
          0.6400000667200009,
          0.012079909619688654,
          0,
          1
        ],
        "metallicFactor": 0,
        "roughnessFactor": 0.6
      },
      "doubleSided": true,
      "name": "Material"
    },
    {
      "pbrMetallicRoughness": {
        "metallicFactor": 0,
        "roughnessFactor": 1
      },
      "emissiveFactor": [
        0.8705882352941177,
        0.9372549019607843,
        0.9686274509803922
      ]
    }
  ],
  "meshes": [
    {
      "primitives": [
        {
          "mode": 4,
          "attributes": {
            "NORMAL": 0,
            "POSITION": 1,
            "TEXCOORD_0": 2
          },
          "indices": 3,
          "material": 0
        }
      ]
    },
    {
      "primitives": [
        {
          "mode": 4,
          "attributes": {
            "NORMAL": 4,
            "POSITION": 5,
            "TEXCOORD_0": 6
          },
          "indices": 7,
          "material": 1
        }
      ]
    },
    {
      "primitives": [
        {
          "mode": 4,
          "attributes": {
            "NORMAL": 8,
            "POSITION": 9,
            "TEXCOORD_0": 10
          },
          "indices": 11,
          "material": 2
        }
      ]
    },
    {
      "primitives": [
        {
          "mode": 4,
          "attributes": {
            "NORMAL": 12,
            "POSITION": 13
          },
          "indices": 14,
          "material": 3
        }
      ]
    },
    {
      "primitives": [
        {
          "mode": 4,
          "attributes": {
            "NORMAL": 15,
            "POSITION": 16
          },
          "indices": 17,
          "material": 4
        }
      ]
    }
  ],
  "extensions": {
    "KHR_lights_punctual": {
      "lights": [
        {
          "name": "DirectionalLight",
          "color": [
            1,
            1,
            1
          ],
          "intensity": 1,
          "type": "directional"
        }
      ]
    }
  },
  "extensionsUsed": [
    "KHR_lights_punctual"
  ]
}