{
  "accessors": [
    {
      "bufferView": 2,
      "componentType": 5126,
      "count": 29090,
      "max": [
        1.223310112953186,
        6.5000009536743164,
        1.1772243976593018
      ],
      "min": [
        -1.2396962642669678,
        -1.010532021522522,
        -1.1877293586730957
      ],
      "type": "VEC3"
    },
    {
      "bufferView": 2,
      "byteOffset": 349080,
      "componentType": 5126,
      "count": 29090,
      "max": [
        1,
        1,
        1
      ],
      "min": [
        -1,
        -1,
        -1
      ],
      "type": "VEC3"
    },
    {
      "bufferView": 1,
      "componentType": 5126,
      "count": 29090,
      "max": [
        1.0000001192092896,
        1.0000002384185791
      ],
      "min": [
        0,
        0
      ],
      "type": "VEC2"
    },
    {
      "bufferView": 0,
      "componentType": 5125,
      "count": 132096,
      "max": [
        29089
      ],
      "min": [
        0
      ],
      "type": "SCALAR"
    },
    {
      "bufferView": 2,
      "byteOffset": 698160,
      "componentType": 5126,
      "count": 3544,
      "max": [
        0.98146218061447144,
        0.93488466739654541,
        0.98146218061447144
      ],
      "min": [
        -0.98146212100982666,
        -1.0000003576278687,
        -0.98146218061447144
      ],
      "type": "VEC3"
    },
    {
      "bufferView": 2,
      "byteOffset": 740688,
      "componentType": 5126,
      "count": 3544,
      "max": [
        0.99986875057220459,
        1,
        0.99986875057220459
      ],
      "min": [
        -0.99986875057220459,
        -1,
        -0.99986875057220459
      ],
      "type": "VEC3"
    },
    {
      "bufferView": 1,
      "byteOffset": 232720,
      "componentType": 5126,
      "count": 3544,
      "max": [
        1.0000001192092896,
        1.0000001192092896
      ],
      "min": [
        0,
        0.010000006295740604
      ],
      "type": "VEC2"
    },
    {
      "bufferView": 0,
      "byteOffset": 528384,
      "componentType": 5125,
      "count": 16896,
      "max": [
        3543
      ],
      "min": [
        0
      ],
      "type": "SCALAR"
    }
  ],
  "asset": {
    "extras": {
      "author": "Tiago Oliveira (https://sketchfab.com/tiago_oliveira)",
      "license": "CC-BY-4.0 (http://creativecommons.org/licenses/by/4.0/)",
      "source": "https://sketchfab.com/3d-models/milk-box-fb9e00da31c44bd4ad5e9c574df0503a",
      "title": "Milk Box"
    },
    "generator": "Sketchfab-8.25.0",
    "version": "2.0"
  },
  "bufferViews": [
    {
      "buffer": 0,
      "byteLength": 595968,
      "byteOffset": 0,
      "name": "floatBufferViews",
      "target": 34963
    },
    {
      "buffer": 0,
      "byteLength": 261072,
      "byteOffset": 595968,
      "byteStride": 8,
      "name": "floatBufferViews",
      "target": 34962
    },
    {
      "buffer": 0,
      "byteLength": 783216,
      "byteOffset": 857040,
      "byteStride": 12,
      "name": "floatBufferViews",
      "target": 34962
    }
  ],
  "buffers": [
    {
      "byteLength": 1640256,
      "uri": "scene.bin"
    }
  ],
  "materials": [
    {
      "doubleSided": true,
      "name": "material_0",
      "pbrMetallicRoughness": {
        "baseColorFactor": [
          1,
          1,
          1,
          1
        ],
        "metallicFactor": 0,
        "roughnessFactor": 0.59999999999999998
      }
    },
    {
      "doubleSided": true,
      "emissiveFactor": [
        0,
        0,
        0
      ],
      "name": "Material.001",
      "pbrMetallicRoughness": {
        "baseColorFactor": [
          0.22824800000000001,
          0.333787,
          0.80000000000000004,
          1
        ],
        "metallicFactor": 0.59999999999999998,
        "roughnessFactor": 0.65454500000000004
      }
    }
  ],
  "meshes": [
    {
      "primitives": [
        {
          "attributes": {
            "NORMAL": 1,
            "POSITION": 0,
            "TEXCOORD_0": 2
          },
          "indices": 3,
          "material": 1,
          "mode": 4
        }
      ]
    },
    {
      "primitives": [
        {
          "attributes": {
            "NORMAL": 5,
            "POSITION": 4,
            "TEXCOORD_0": 6
          },
          "indices": 7,
          "material": 0,
          "mode": 4
        }
      ]
    }
  ],
  "nodes": [
    {
      "children": [
        1
      ],
      "name": "RootNode (gltf orientation matrix)",
      "rotation": [
        -0.70710678118654746,
        -0,
        -0,
        0.70710678118654757
      ]
    },
    {
      "children": [
        2
      ],
      "name": "RootNode (model correction matrix)"
    },
    {
      "children": [
        3
      ],
      "name": "root"
    },
    {
      "children": [
        4,
        6
      ],
      "matrix": [
        1,
        0,
        0,
        0,
        0,
        2.2204460492503131e-16,
        1,
        0,
        0,
        -1,
        2.2204460492503131e-16,
        0,
        0,
        0,
        0,
        1
      ],
      "name": "GLTF_SceneRootNode"
    },
    {
      "children": [
        5
      ],
      "matrix": [
        1,
        0,
        0,
        0,
        0,
        1,
        0,
        0,
        0,
        0,
        1,
        0,
        0,
        0,
        3.0302197933197021,
        1
      ],
      "name": "Cube.002_2"
    },
    {
      "mesh": 0,
      "name": ""
    },
    {
      "children": [
        7
      ],
      "matrix": [
        0.20433168039440747,
        0.20433170705310363,
        0,
        0,
        -0.057443755897261847,
        0.057443748402704796,
        0,
        0,
        0,
        0,
        0.28896859288215637,
        0,
        -0.57530862092971802,
        5.5090055465698242,
        2.9996662139892578,
        1
      ],
      "name": "Cylinder_3"
    },
    {
      "mesh": 1,
      "name": ""
    }
  ],
  "scene": 0,
  "scenes": [
    {
      "name": "OSG_Scene",
      "nodes": [
        0
      ]
    }
  ]
}

