{
  "accessors": [
    {
      "bufferView": 1,
      "componentType": 5126,
      "count": 153,
      "max": [
        0.28093001246452332,
        0.28112000226974487,
        0.38420999050140381
      ],
      "min": [
        -0.28093001246452332,
        -0.28073999285697937,
        0.29306000471115112
      ],
      "type": "VEC3"
    },
    {
      "bufferView": 1,
      "byteOffset": 1836,
      "componentType": 5126,
      "count": 153,
      "max": [
        1,
        1,
        1
      ],
      "min": [
        -1,
        -1,
        0
      ],
      "type": "VEC3"
    },
    {
      "bufferView": 0,
      "componentType": 5125,
      "count": 864,
      "max": [
        152
      ],
      "min": [
        0
      ],
      "type": "SCALAR"
    },
    {
      "bufferView": 1,
      "byteOffset": 3672,
      "componentType": 5126,
      "count": 1071,
      "max": [
        0.90625,
        0.90623998641967773,
        0.29306000471115112
      ],
      "min": [
        -0.90930002927780151,
        -0.90609997510910034,
        -1.3596999645233154
      ],
      "type": "VEC3"
    },
    {
      "bufferView": 1,
      "byteOffset": 16524,
      "componentType": 5126,
      "count": 1071,
      "max": [
        0.99998754262924194,
        0.99994701147079468,
        0.99994355440139771
      ],
      "min": [
        -0.99999719858169556,
        -0.99996036291122437,
        -1
      ],
      "type": "VEC3"
    },
    {
      "bufferView": 0,
      "byteOffset": 3456,
      "componentType": 5125,
      "count": 6384,
      "max": [
        1070
      ],
      "min": [
        0
      ],
      "type": "SCALAR"
    }
  ],
  "asset": {
    "extras": {
      "author": "Deathgirl3D (https://sketchfab.com/deathgirl1)",
      "license": "CC-BY-4.0 (http://creativecommons.org/licenses/by/4.0/)",
      "source": "https://sketchfab.com/3d-models/milk-gallon-2e0e34afe2fb4980ad4185e05c1fa742",
      "title": "milk gallon"
    },
    "generator": "Sketchfab-5.50.0",
    "version": "2.0"
  },
  "bufferViews": [
    {
      "buffer": 0,
      "byteLength": 28992,
      "byteOffset": 0,
      "name": "floatBufferViews",
      "target": 34963
    },
    {
      "buffer": 0,
      "byteLength": 29376,
      "byteOffset": 28992,
      "byteStride": 12,
      "name": "floatBufferViews",
      "target": 34962
    }
  ],
  "buffers": [
    {
      "byteLength": 58368,
      "uri": "scene.bin"
    }
  ],
  "materials": [
    {
      "doubleSided": true,
      "emissiveFactor": [
        0,
        0,
        0
      ],
      "name": "Material",
      "pbrMetallicRoughness": {
        "baseColorFactor": [
          0.64000006672000087,
          0.012079909619688654,
          0,
          1
        ],
        "metallicFactor": 0,
        "roughnessFactor": 0.59999999999999998
      }
    },
    {
      "doubleSided": true,
      "emissiveFactor": [
        0,
        0,
        0
      ],
      "name": "Material.001",
      "pbrMetallicRoughness": {
        "baseColorFactor": [
          0.80000001190000003,
          0.80000001190000003,
          0.80000001190000003,
          1
        ],
        "metallicFactor": 0,
        "roughnessFactor": 0.59999999999999998
      }
    }
  ],
  "meshes": [
    {
      "name": "Cube.001_0",
      "primitives": [
        {
          "attributes": {
            "NORMAL": 1,
            "POSITION": 0
          },
          "indices": 2,
          "material": 0,
          "mode": 4
        }
      ]
    },
    {
      "name": "Cube.001_1",
      "primitives": [
        {
          "attributes": {
            "NORMAL": 4,
            "POSITION": 3
          },
          "indices": 5,
          "material": 1,
          "mode": 4
        }
      ]
    }
  ],
  "nodes": [
    {
      "children": [
        1
      ],
      "name": "RootNode (gltf orientation matrix)",
      "rotation": [
        -0.70710678118654746,
        -0,
        -0,
        0.70710678118654757
      ]
    },
    {
      "children": [
        2
      ],
      "name": "RootNode (model correction matrix)"
    },
    {
      "children": [
        3
      ],
      "name": "Root"
    },
    {
      "children": [
        4,
        5
      ],
      "matrix": [
        1.2513099999999999,
        0,
        0,
        0,
        0,
        -1.2197199999999997,
        0,
        0,
        0,
        0,
        1.83728,
        0,
        0.63101000000000007,
        -0,
        3.1032100000000002,
        1
      ],
      "name": "Cube.001"
    },
    {
      "mesh": 0,
      "name": "Cube.001_0"
    },
    {
      "mesh": 1,
      "name": "Cube.001_1"
    }
  ],
  "scene": 0,
  "scenes": [
    {
      "name": "OSG_Scene",
      "nodes": [
        0
      ]
    }
  ]
}

